<svg width="339" height="367" viewBox="0 0 339 367" fill="none" xmlns="http://www.w3.org/2000/svg">
<path d="M188.309 349.587C129.042 384.646 52.5164 365.038 17.432 305.769C-17.6856 246.481 1.93441 169.995 61.2018 134.935C120.489 99.8428 183.185 -108.921 298.714 74.414C414.263 257.716 247.63 314.514 188.309 349.587Z" fill="white"/>
<path d="M155.649 155.896L132.93 151.402C132.93 151.402 116.423 172.972 110.511 200.043C104.627 227.114 100.569 279.104 95.747 300.565C90.9254 322.053 89.6723 328.317 93.0502 329.433C105.336 333.518 148.403 327.663 170.522 334.771C192.669 341.879 141.511 333.845 147.94 292.422C154.369 251.053 155.649 155.896 155.649 155.896Z" fill="#12344A"/>
<path d="M139.604 169.704C139.604 169.704 153.442 176.867 132.304 218.481C111.22 260.095 102.666 253.722 102.666 253.722L91.1705 251.162L73.219 221.231L87.0027 211.835L89.2909 213.115C89.2909 213.115 92.6142 212.162 93.4587 209.221C94.3031 206.28 101.277 194.269 110.321 169.568C124.213 131.739 136.962 168.315 139.604 169.704Z" fill="#163F59"/>
<path d="M76.3516 222.103C76.3516 222.103 50.8 233.405 35.8177 233.841C25.766 234.113 45.4064 246.913 65.6734 250.835C85.9131 254.73 93.9218 254.484 98.934 247.676C103.946 240.813 76.3516 222.103 76.3516 222.103Z" fill="#B58B6B"/>
<path d="M102.366 218.154L95.8014 212.38L93.0501 210.229C91.8515 212.38 89.3181 213.088 89.3181 213.088L95.0386 216.411L101.004 221.613L106.534 230.981L102.366 218.154Z" fill="#194866"/>
<path d="M107.624 271.805L161.914 275.128L190.707 201.568C190.707 201.568 209.122 157.176 181.146 154.262C153.17 151.348 120.182 153.826 120.182 153.826C120.182 153.826 109.912 164.557 107.624 271.805Z" fill="#7DC2F5"/>
<path d="M145.706 161.697C145.706 161.697 113.644 204.646 111.982 257.725C111.846 261.919 115.714 265.542 115.714 265.542L122.661 260.667C122.661 260.694 131.895 201.813 145.706 161.697Z" fill="#163F59"/>
<path d="M148.076 160.471L148.621 169.949L167.035 157.067L165.319 153.418L148.076 160.471Z" fill="#639CD9"/>
<path d="M143.527 154.017L140.667 156.06L139.713 165.973L146.986 160.608L143.527 154.017Z" fill="#639CD9"/>
<path d="M128.763 115.78C128.735 116.488 125.712 122.48 125.167 123.596C124.595 124.713 123.859 126.102 124.023 126.538C124.213 126.973 125.276 128.226 125.766 128.689C126.256 129.152 128.109 131.086 128.708 128.172C129.307 125.23 128.763 115.78 128.763 115.78Z" fill="#B58B6B"/>
<path d="M158.672 114.663C160.879 114.745 162.595 116.597 162.513 118.803C162.431 121.009 160.579 122.725 158.373 122.67" fill="#F7B68B"/>
<path d="M38.4328 235.693L22.8512 224.854L12.2002 225.18C12.2002 225.18 10.7837 227.55 14.2432 229.647C17.6755 231.744 22.1974 232.67 22.1974 232.67L28.3265 243.7C28.3265 243.7 21.1351 247.186 19.3917 246.151C17.6755 245.116 10.8381 241.167 10.8381 241.167C10.8381 241.167 14.2432 250.318 18.6289 250.672C23.0146 251.026 27.7 251.434 31.0506 251.162C34.4012 250.89 36.2808 241.63 39.7131 240.268C43.1454 238.852 38.4328 235.693 38.4328 235.693Z" fill="#B58B6B"/>
<path d="M171.421 151.593C171.421 151.593 146.142 203.039 145.079 215.975C144.017 228.911 132.63 287.057 149.901 340.817C152.38 348.525 189.536 333.981 189.536 333.981C182.835 318.948 177.25 224.254 190.707 201.623C212.636 164.775 212.609 160.798 171.421 151.593Z" fill="#163F59"/>
<path d="M162.622 150.122C162.622 150.122 166.218 161.997 162.568 171.093C158.918 180.189 143.772 223.056 143.772 223.056C143.772 223.056 159.463 191.083 168.615 185.336C177.768 179.59 164.856 178.501 164.856 178.501H173.546L176.052 157.013L171.448 151.566L162.622 150.122Z" fill="#194866"/>
<path d="M148.43 149.305C148.43 149.305 122.497 151.348 118.792 153.363C115.087 155.379 106.071 197.537 105.88 205.708C105.689 213.905 101.494 269.981 99.1518 280.874C96.8091 291.768 105.935 263.118 108.25 246.913C110.566 230.709 121.08 185.282 130.751 173.544C140.421 161.806 140.094 158.402 140.094 158.402L148.43 149.305Z" fill="#194866"/>
<path d="M129.607 99.9023C129.607 99.9023 122.579 138.303 130.914 143.586C131.269 143.804 137.479 144.594 140.503 147.78C143.336 150.803 143.2 153.908 144.181 155.242C144.507 155.678 145.543 158.374 146.278 159.137C149.329 162.296 152.325 158.837 154.26 158.129C158.972 156.441 163.712 155.46 163.657 153.472C163.603 151.293 158.237 136.696 158.7 133.809C160.089 125.394 170.577 110.469 156.548 99.7116C152.462 96.5797 130.86 97.4784 129.607 99.9023Z" fill="#B58B6B"/>
<path d="M130.887 142.96C130.887 142.96 132.14 142.415 134.428 141.135C135.191 140.727 137.425 139.528 138.651 139.256C144.044 138.085 143.854 138.575 146.986 137.213C150.555 135.661 157.392 130.922 157.392 130.922C157.392 130.922 154.968 134.708 154.042 136.233C152.271 139.092 149.847 140.345 147.749 141.026C138.487 144.049 139.032 144.757 137.806 144.703C137.697 144.676 137.071 144.294 130.887 142.96Z" fill="#967156"/>
<path d="M131.132 126.973C131.132 126.973 126.583 125.448 126.093 125.557C125.602 125.639 124.404 125.693 124.322 126.156C124.24 126.619 124.894 127.899 127.101 129.37C127.618 129.724 127.4 128.526 131.132 126.973Z" fill="#967155"/>
<path d="M141.865 150.204L125.548 168.015L128.653 169.731L124.131 171.883C124.131 171.883 114.052 201.786 112.936 206.416C111.819 211.018 106.561 243.863 105.935 251.407C105.308 258.951 116.232 201.623 121.87 190.157C127.537 178.691 141.375 164.284 141.211 162.106C141.021 159.927 143.254 150.449 143.254 150.449" fill="#163F59"/>
<path d="M244.126 280.766L168.833 234.222L151.699 301.845L231.868 341.607L244.126 280.766Z" fill="#4C9173"/>
<path d="M218.929 253.368L189.972 316.742C189.972 316.742 194.957 318.73 198.144 316.334C206.807 309.852 222.443 291.496 228.245 281.229C236.172 267.176 241.13 251.679 241.13 251.679L218.929 253.368Z" fill="#B58B6B"/>
<path d="M197.027 317.695C195.311 320.31 185.695 322.216 185.695 322.216L179.62 314.128L183.897 314.482L187.52 307.891L196.373 312.167C196.346 312.167 198.062 316.088 197.027 317.695Z" fill="#B58B6B"/>
<path d="M187.275 198.954L214.897 250.127L219.119 251.08L217.566 255.084L240.666 255.22L247.395 235.774L208.386 166.599C208.386 166.599 204.001 161.888 195.774 158.265C189.945 155.678 174.227 178.61 182.481 191.382C184.878 195.114 186.785 197.973 187.275 198.954Z" fill="#163F59"/>
<path d="M239.795 242.365C239.795 242.365 225.058 248.003 217.267 250.644L219.092 251.053L217.539 255.056H225.521L236.853 253.341L237.861 248.683L234.428 248.411L239.795 242.365Z" fill="#194866"/>
</svg>
